<svg width="24" height="26" viewBox="0 0 24 26" fill="none" xmlns="http://www.w3.org/2000/svg">
<path d="M7.10397 14.4883C8.79596 14.4883 10.1519 15.9295 10.1519 17.7233V22.0294C10.1519 23.8105 8.79596 25.2632 7.10397 25.2632H3.04798C1.36799 25.2632 0 23.8105 0 22.0294V17.7233C0 15.9295 1.36799 14.4883 3.04798 14.4883H7.10397ZM20.952 14.4883C22.632 14.4883 24 15.9295 24 17.7233V22.0294C24 23.8105 22.632 25.2632 20.952 25.2632H16.896C15.204 25.2632 13.8481 23.8105 13.8481 22.0294V17.7233C13.8481 15.9295 15.204 14.4883 16.896 14.4883H20.952ZM7.10397 0C8.79596 0 10.1519 1.45265 10.1519 3.235V7.54117C10.1519 9.33488 8.79596 10.7749 7.10397 10.7749H3.04798C1.36799 10.7749 0 9.33488 0 7.54117V3.235C0 1.45265 1.36799 0 3.04798 0H7.10397ZM20.952 0C22.632 0 24 1.45265 24 3.235V7.54117C24 9.33488 22.632 10.7749 20.952 10.7749H16.896C15.204 10.7749 13.8481 9.33488 13.8481 7.54117V3.235C13.8481 1.45265 15.204 0 16.896 0H20.952Z" fill="#FFFDE7"/>
</svg>
