<svg width="62" height="60" viewBox="0 0 62 60" fill="none" xmlns="http://www.w3.org/2000/svg">
<ellipse cx="31" cy="30" rx="31" ry="30" fill="#263238"/>
<path d="M41.2616 32.262C41.1486 32.378 40.7219 32.874 40.3244 33.282C37.9942 35.848 31.9152 40.048 28.7336 41.33C28.2504 41.536 27.0287 41.972 26.376 42C25.7506 42 25.1544 41.856 24.5855 41.564C23.8763 41.156 23.3074 40.514 22.9956 39.756C22.7949 39.23 22.4832 37.656 22.4832 37.628C22.1715 35.906 22 33.108 22 30.016C22 27.07 22.1715 24.386 22.4267 22.638C22.4559 22.61 22.7677 20.654 23.1086 19.984C23.734 18.76 24.9557 18 26.263 18H26.376C27.2275 18.03 29.018 18.79 29.018 18.818C32.0283 20.102 37.9669 24.096 40.3536 26.75C40.3536 26.75 41.0258 27.432 41.3181 27.858C41.774 28.47 42 29.228 42 29.986C42 30.832 41.7448 31.62 41.2616 32.262Z" fill="#E5E5E5"/>
</svg>
