<svg width="24" height="26" viewBox="0 0 24 26" fill="none" xmlns="http://www.w3.org/2000/svg">
<path d="M18.7448 19.7738C19.2087 19.2889 19.9522 19.2889 20.416 19.7738L23.4816 22.3786H23.5348C24.1551 23.0385 24.1551 24.1084 23.5348 24.7683C22.9146 25.4281 21.9091 25.4281 21.2889 24.7683L18.7448 21.6991L18.6483 21.5845C18.4685 21.3448 18.3692 21.0461 18.3692 20.7365C18.3692 20.3752 18.5043 20.0288 18.7448 19.7738ZM10.2932 0C13.0231 0 15.6412 1.15381 17.5715 3.20762C19.5019 5.26142 20.5863 8.04697 20.5863 10.9515C20.5863 16.9998 15.9779 21.903 10.2932 21.903C4.60841 21.903 0 16.9998 0 10.9515C0 4.90315 4.60841 0 10.2932 0Z" fill="#FFFDE7"/>
</svg>
