<svg width="23" height="26" viewBox="0 0 23 26" fill="none" xmlns="http://www.w3.org/2000/svg">
<path d="M12.4607 0C13.3682 0 14.1898 0.530526 14.6436 1.31368C14.8643 1.69263 15.0115 2.16 14.9747 2.65263C14.9502 3.03158 15.0605 3.41053 15.2568 3.76421C15.8822 4.8379 17.268 5.24211 18.3471 4.63579C19.5612 3.90316 21.0942 4.34526 21.7932 5.59579L22.6148 7.08632C23.3261 8.33684 22.9337 9.94105 21.7073 10.6611C20.6649 11.3053 20.297 12.7326 20.9225 13.8189C21.1187 14.16 21.3394 14.4505 21.6828 14.6274C22.112 14.8674 22.4432 15.2463 22.6762 15.6253C23.1299 16.4084 23.0931 17.3684 22.6516 18.2147L21.7932 19.7305C21.3394 20.5389 20.4933 21.0442 19.6226 21.0442C19.1933 21.0442 18.7151 20.9179 18.3226 20.6653C18.0038 20.4505 17.6359 20.3747 17.2434 20.3747C16.0294 20.3747 15.0115 21.4232 14.9747 22.6737C14.9747 24.1263 13.8464 25.2632 12.4361 25.2632H10.7683C9.34575 25.2632 8.21751 24.1263 8.21751 22.6737C8.19299 21.4232 7.17512 20.3747 5.96103 20.3747C5.55634 20.3747 5.18843 20.4505 4.88184 20.6653C4.48941 20.9179 3.99887 21.0442 3.58192 21.0442C2.69895 21.0442 1.85276 20.5389 1.39902 19.7305L0.552836 18.2147C0.099087 17.3937 0.07456 16.4084 0.528309 15.6253C0.724525 15.2463 1.09243 14.8674 1.50939 14.6274C1.85276 14.4505 2.07351 14.16 2.28199 13.8189C2.89516 12.7326 2.52726 11.3053 1.48486 10.6611C0.270776 9.94105 -0.121656 8.33684 0.577363 7.08632L1.39902 5.59579C2.1103 4.34526 3.63097 3.90316 4.85732 4.63579C5.92424 5.24211 7.31001 4.8379 7.93545 3.76421C8.13167 3.41053 8.24204 3.03158 8.21751 2.65263C8.19299 2.16 8.32788 1.69263 8.56089 1.31368C9.01464 0.530526 9.83629 0.0252632 10.7315 0H12.4607ZM11.6145 9.06948C9.68913 9.06948 8.13167 10.6611 8.13167 12.6442C8.13167 14.6274 9.68913 16.2063 11.6145 16.2063C13.5399 16.2063 15.0605 14.6274 15.0605 12.6442C15.0605 10.6611 13.5399 9.06948 11.6145 9.06948Z" fill="#FFFDE7"/>
</svg>
